<svg version="1.1" id="Layer_1" xmlns="http://www.w3.org/2000/svg" xmlns:xlink="http://www.w3.org/1999/xlink" x="0px" y="0px"
	 width="100%" viewBox="0 0 800 800" enable-background="new 0 0 800 800" xml:space="preserve">
<path fill="#000000" opacity="1.000000" stroke="none" 
	d="
M425.000000,801.000000 
	C283.333344,801.000000 142.166672,801.000000 1.000000,801.000000 
	C1.000000,534.333313 1.000000,267.666656 1.000000,1.000000 
	C267.666656,1.000000 534.333313,1.000000 801.000000,1.000000 
	C801.000000,267.666656 801.000000,534.333313 801.000000,801.000000 
	C675.833313,801.000000 550.666687,801.000000 425.000000,801.000000 
M449.406921,429.648163 
	C461.988770,422.288055 474.633911,415.031921 487.081787,407.451813 
	C488.875031,406.359833 490.820221,403.717834 490.835754,401.778259 
	C491.041168,376.122742 491.018372,350.463226 490.686737,324.809387 
	C490.657562,322.553802 488.545319,319.656189 486.558289,318.231171 
	C482.138519,315.061462 477.188385,312.629913 472.447754,309.909149 
	C455.477600,300.169800 438.499573,290.444183 421.537445,280.690887 
	C418.379486,278.875061 415.648132,278.225708 411.985229,280.405396 
	C389.767670,293.626495 367.362885,306.532806 343.759827,320.278564 
	C346.780182,322.461731 348.896027,324.289886 351.274475,325.663361 
	C371.507202,337.347046 391.731354,349.048309 412.102753,360.486694 
	C416.041626,362.698364 417.152222,365.376526 417.125549,369.686218 
	C416.985291,392.343872 417.122101,415.003448 417.220093,437.662109 
	C417.233398,440.743530 417.569183,443.823578 417.821228,447.987213 
	C428.811554,441.644043 438.815948,435.869873 449.406921,429.648163 
M385.967224,357.790649 
	C372.703369,350.266388 358.915741,343.512756 346.345123,334.968567 
	C336.680756,328.399750 329.314697,328.847412 319.664490,335.071136 
	C301.288971,346.922089 281.939667,357.257568 263.131866,368.452759 
	C261.347382,369.514984 259.444672,372.202606 259.434357,374.145325 
	C259.299408,399.632507 259.383911,425.123230 259.788696,450.607086 
	C259.827209,453.031952 261.790863,456.416138 263.873657,457.662933 
	C281.508698,468.219635 299.365601,478.406586 317.187683,488.649292 
	C322.109650,491.478058 327.138306,494.121216 333.098114,497.386505 
	C333.290009,493.330780 333.517975,490.727386 333.520050,488.123810 
	C333.538391,464.966766 333.684814,441.807404 333.364136,418.654663 
	C333.300537,414.060699 335.033966,411.792328 338.652222,409.710297 
	C357.039062,399.130005 375.353271,388.422882 393.648010,377.683777 
	C397.435059,375.460724 401.031738,372.913422 405.928711,369.726440 
	C398.679047,365.443420 392.606659,361.855896 385.967224,357.790649 
M430.883850,450.545837 
	C427.343506,452.622620 423.966949,455.112244 420.196289,456.608643 
	C418.197449,457.401825 415.083405,457.243469 413.205414,456.198273 
	C391.606232,444.177887 370.153717,431.894073 348.646698,419.707733 
	C344.375671,417.287720 342.374023,418.283905 342.356781,423.117188 
	C342.265167,448.773743 342.226624,474.431244 342.424408,500.086456 
	C342.438812,501.955170 344.013580,504.577698 345.639557,505.547577 
	C359.214294,513.644165 372.967346,521.442139 386.674530,529.316406 
	C395.967590,534.654968 405.232697,540.045227 414.619385,545.214233 
	C415.954376,545.949402 418.273529,546.247314 419.514069,545.583313 
	C427.169708,541.485779 434.656647,537.071655 442.180908,532.730286 
	C455.299500,525.160950 468.265594,517.312256 481.569336,510.084564 
	C489.088593,505.999481 492.900940,501.118256 492.567261,491.838562 
	C491.747406,469.041595 492.127289,446.202087 491.956787,423.380188 
	C491.940338,421.182037 491.449707,418.987427 491.057037,415.799988 
	C470.557922,427.632874 451.042145,438.898132 430.883850,450.545837 
z"/>
<path fill="#FAFAFA" opacity="1.000000" stroke="none" 
	d="
M449.113647,429.871948 
	C438.815948,435.869873 428.811554,441.644043 417.821228,447.987213 
	C417.569183,443.823578 417.233398,440.743530 417.220093,437.662109 
	C417.122101,415.003448 416.985291,392.343872 417.125549,369.686218 
	C417.152222,365.376526 416.041626,362.698364 412.102753,360.486694 
	C391.731354,349.048309 371.507202,337.347046 351.274475,325.663361 
	C348.896027,324.289886 346.780182,322.461731 343.759827,320.278564 
	C367.362885,306.532806 389.767670,293.626495 411.985229,280.405396 
	C415.648132,278.225708 418.379486,278.875061 421.537445,280.690887 
	C438.499573,290.444183 455.477600,300.169800 472.447754,309.909149 
	C477.188385,312.629913 482.138519,315.061462 486.558289,318.231171 
	C488.545319,319.656189 490.657562,322.553802 490.686737,324.809387 
	C491.018372,350.463226 491.041168,376.122742 490.835754,401.778259 
	C490.820221,403.717834 488.875031,406.359833 487.081787,407.451813 
	C474.633911,415.031921 461.988770,422.288055 449.113647,429.871948 
z"/>
<path fill="#FAFAFA" opacity="1.000000" stroke="none" 
	d="
M386.250732,358.029510 
	C392.606659,361.855896 398.679047,365.443420 405.928711,369.726440 
	C401.031738,372.913422 397.435059,375.460724 393.648010,377.683777 
	C375.353271,388.422882 357.039062,399.130005 338.652222,409.710297 
	C335.033966,411.792328 333.300537,414.060699 333.364136,418.654663 
	C333.684814,441.807404 333.538391,464.966766 333.520050,488.123810 
	C333.517975,490.727386 333.290009,493.330780 333.098114,497.386505 
	C327.138306,494.121216 322.109650,491.478058 317.187683,488.649292 
	C299.365601,478.406586 281.508698,468.219635 263.873657,457.662933 
	C261.790863,456.416138 259.827209,453.031952 259.788696,450.607086 
	C259.383911,425.123230 259.299408,399.632507 259.434357,374.145325 
	C259.444672,372.202606 261.347382,369.514984 263.131866,368.452759 
	C281.939667,357.257568 301.288971,346.922089 319.664490,335.071136 
	C329.314697,328.847412 336.680756,328.399750 346.345123,334.968567 
	C358.915741,343.512756 372.703369,350.266388 386.250732,358.029510 
z"/>
<path fill="#6F6F6F" opacity="1.000000" stroke="none" 
	d="
M431.205078,450.354614 
	C451.042145,438.898132 470.557922,427.632874 491.057037,415.799988 
	C491.449707,418.987427 491.940338,421.182037 491.956787,423.380188 
	C492.127289,446.202087 491.747406,469.041595 492.567261,491.838562 
	C492.900940,501.118256 489.088593,505.999481 481.569336,510.084564 
	C468.265594,517.312256 455.299500,525.160950 442.180908,532.730286 
	C434.656647,537.071655 427.169708,541.485779 419.514069,545.583313 
	C418.273529,546.247314 415.954376,545.949402 414.619385,545.214233 
	C405.232697,540.045227 395.967590,534.654968 386.674530,529.316406 
	C372.967346,521.442139 359.214294,513.644165 345.639557,505.547577 
	C344.013580,504.577698 342.438812,501.955170 342.424408,500.086456 
	C342.226624,474.431244 342.265167,448.773743 342.356781,423.117188 
	C342.374023,418.283905 344.375671,417.287720 348.646698,419.707733 
	C370.153717,431.894073 391.606232,444.177887 413.205414,456.198273 
	C415.083405,457.243469 418.197449,457.401825 420.196289,456.608643 
	C423.966949,455.112244 427.343506,452.622620 431.205078,450.354614 
M439.777924,448.122131 
	C436.062866,450.302094 432.347748,452.481964 428.632812,454.662048 
	C417.101166,461.429260 417.101044,461.429443 405.652893,454.645691 
	C405.511017,454.561646 405.403137,454.419495 405.260162,454.338318 
	C387.551788,444.278107 369.884430,434.144562 352.108490,424.205231 
	C345.840759,420.700684 343.747375,422.024048 343.734253,429.307739 
	C343.698883,448.958282 343.805359,468.609131 343.868378,488.259796 
	C343.920563,504.528259 342.368073,501.199127 355.800720,508.910614 
	C375.052399,519.962830 394.256012,531.101013 413.628082,541.937927 
	C415.567017,543.022583 419.095032,543.278564 420.927063,542.235535 
	C442.630554,529.879333 464.146332,517.193604 485.726227,504.619751 
	C489.019226,502.701050 490.658722,500.143250 490.625397,496.119049 
	C490.447510,474.637207 490.528687,453.153320 490.376770,431.671143 
	C490.350922,428.010986 489.629303,424.355743 489.094482,419.467865 
	C472.087891,429.369049 456.264374,438.581482 439.777924,448.122131 
z"/>
<path fill="#FDFDFD" opacity="1.000000" stroke="none" 
	d="
M440.109375,447.958008 
	C456.264374,438.581482 472.087891,429.369049 489.094482,419.467865 
	C489.629303,424.355743 490.350922,428.010986 490.376770,431.671143 
	C490.528687,453.153320 490.447510,474.637207 490.625397,496.119049 
	C490.658722,500.143250 489.019226,502.701050 485.726227,504.619751 
	C464.146332,517.193604 442.630554,529.879333 420.927063,542.235535 
	C419.095032,543.278564 415.567017,543.022583 413.628082,541.937927 
	C394.256012,531.101013 375.052399,519.962830 355.800720,508.910614 
	C342.368073,501.199127 343.920563,504.528259 343.868378,488.259796 
	C343.805359,468.609131 343.698883,448.958282 343.734253,429.307739 
	C343.747375,422.024048 345.840759,420.700684 352.108490,424.205231 
	C369.884430,434.144562 387.551788,444.278107 405.260162,454.338318 
	C405.403137,454.419495 405.511017,454.561646 405.652893,454.645691 
	C417.101044,461.429443 417.101166,461.429260 428.632812,454.662048 
	C432.347748,452.481964 436.062866,450.302094 440.109375,447.958008 
z"/>
</svg>